<svg width="1200" height="800" viewBox="0 0 1200 800" fill="none" xmlns="http://www.w3.org/2000/svg">
  <rect width="1200" height="800" rx="48" fill="#E8E3DA"/>
  <rect width="1200" height="190" fill="#F1F0EE"/>
  <rect x="48" y="118" width="226" height="260" rx="8" fill="#F7F6F3"/>
  <rect x="298" y="135" width="240" height="200" rx="12" fill="#C5AF8F"/>
  <rect x="554" y="112" width="410" height="270" rx="10" fill="#1D252F"/>
  <path d="M598 180C626 170 658 210 690 196C718 184 735 166 766 173C803 181 802 232 839 239C880 247 900 197 935 199" stroke="#D8D9DB" stroke-width="7" stroke-linecap="round"/>
  <path d="M640 275C665 263 706 266 737 251C780 231 807 221 842 230C881 240 886 275 920 279" stroke="#CFD3D6" stroke-width="7" stroke-linecap="round"/>
  <path d="M1132 40H1010V312H1132V40Z" fill="#D7C6A4"/>
  <path d="M1008 42L1134 42L1134 316L1008 316" stroke="#9B835D" stroke-width="6"/>
  <rect x="126" y="404" width="118" height="40" rx="7" fill="#8B6A3C"/>
  <rect x="366" y="430" width="118" height="40" rx="7" fill="#8B6A3C"/>
  <rect x="611" y="414" width="118" height="40" rx="7" fill="#8B6A3C"/>
  <rect x="862" y="433" width="118" height="40" rx="7" fill="#8B6A3C"/>
  <g>
    <rect x="87" y="448" width="154" height="86" rx="14" fill="#E2C7A3"/>
    <rect x="112" y="520" width="10" height="86" rx="5" fill="#494949"/>
    <rect x="210" y="520" width="10" height="86" rx="5" fill="#494949"/>
    <rect x="66" y="500" width="70" height="92" rx="18" fill="#4E3145"/>
  </g>
  <g>
    <rect x="282" y="493" width="154" height="86" rx="14" fill="#E2C7A3"/>
    <rect x="308" y="565" width="10" height="86" rx="5" fill="#494949"/>
    <rect x="406" y="565" width="10" height="86" rx="5" fill="#494949"/>
    <rect x="261" y="545" width="70" height="92" rx="18" fill="#4E3145"/>
  </g>
  <g>
    <rect x="483" y="448" width="154" height="86" rx="14" fill="#E2C7A3"/>
    <rect x="509" y="520" width="10" height="86" rx="5" fill="#494949"/>
    <rect x="607" y="520" width="10" height="86" rx="5" fill="#494949"/>
    <rect x="462" y="500" width="70" height="92" rx="18" fill="#4E3145"/>
  </g>
  <g>
    <rect x="684" y="499" width="154" height="86" rx="14" fill="#E2C7A3"/>
    <rect x="710" y="571" width="10" height="86" rx="5" fill="#494949"/>
    <rect x="808" y="571" width="10" height="86" rx="5" fill="#494949"/>
    <rect x="663" y="551" width="70" height="92" rx="18" fill="#4E3145"/>
  </g>
  <g>
    <rect x="890" y="470" width="154" height="86" rx="14" fill="#E2C7A3"/>
    <rect x="916" y="542" width="10" height="86" rx="5" fill="#494949"/>
    <rect x="1014" y="542" width="10" height="86" rx="5" fill="#494949"/>
    <rect x="869" y="522" width="70" height="92" rx="18" fill="#4E3145"/>
  </g>
  <g>
    <rect x="190" y="610" width="164" height="92" rx="14" fill="#E2C7A3"/>
    <rect x="220" y="690" width="10" height="88" rx="5" fill="#494949"/>
    <rect x="322" y="690" width="10" height="88" rx="5" fill="#494949"/>
    <rect x="162" y="658" width="74" height="100" rx="18" fill="#4E3145"/>
  </g>
  <g>
    <rect x="420" y="624" width="164" height="92" rx="14" fill="#E2C7A3"/>
    <rect x="450" y="704" width="10" height="88" rx="5" fill="#494949"/>
    <rect x="552" y="704" width="10" height="88" rx="5" fill="#494949"/>
    <rect x="392" y="672" width="74" height="100" rx="18" fill="#4E3145"/>
  </g>
  <g>
    <rect x="662" y="613" width="164" height="92" rx="14" fill="#E2C7A3"/>
    <rect x="692" y="693" width="10" height="88" rx="5" fill="#494949"/>
    <rect x="794" y="693" width="10" height="88" rx="5" fill="#494949"/>
    <rect x="634" y="661" width="74" height="100" rx="18" fill="#4E3145"/>
  </g>
  <g>
    <rect x="905" y="620" width="164" height="92" rx="14" fill="#E2C7A3"/>
    <rect x="935" y="700" width="10" height="88" rx="5" fill="#494949"/>
    <rect x="1037" y="700" width="10" height="88" rx="5" fill="#494949"/>
    <rect x="877" y="668" width="74" height="100" rx="18" fill="#4E3145"/>
  </g>
</svg>
